<svg width="24" height="24" viewBox="0 0 24 24" fill="none" xmlns="http://www.w3.org/2000/svg">
  <path d="M12 2C13.1 2 14 2.9 14 4C14 5.1 13.1 6 12 6C10.9 6 10 5.1 10 4C10 2.9 10.9 2 12 2ZM21 19V20H3V19L5 17V11C5 7.9 7.03 5.17 10 4.29C10 4.19 10 4.1 10 4C10 2.34 11.34 1 13 1C14.66 1 16 2.34 16 4C16 4.1 16 4.19 16 4.29C18.97 5.17 21 7.9 21 11V17L23 19ZM7 18H17V11C17 8.24 14.76 6 12 6S7 8.24 7 11V18Z" fill="#2196F3"/>
  <circle cx="12" cy="4" r="2" fill="#FF5722"/>
  <path d="M10 21C10 22.1 10.9 23 12 23S14 22.1 14 21" stroke="#2196F3" stroke-width="2" fill="none"/>
</svg>